solid Default
  facet normal 0.000000e+00 0.000000e+00 -1.000000e+00
    outer loop
      vertex 7.406361e+01 1.615366e+01 0.000000e+00
      vertex 7.398981e+01 1.641403e+01 0.000000e+00
      vertex 7.396870e+01 1.661196e+01 0.000000e+00
    endloop
  endfacet
  facet normal 0.000000e+00 0.000000e+00 -1.000000e+00
    outer loop
      vertex 7.413609e+01 1.589801e+01 0.000000e+00
      vertex 7.410966e+01 1.593130e+01 0.000000e+00
      vertex 7.406361e+01 1.615366e+01 0.000000e+00
    endloop
  endfacet
endsolid Default
